HIERARCHY
ROOT Hips
{
  OFFSET 57.8838 95.319 338.509
  CHANNELS 6 Xposition Yposition Zposition Zrotation Xrotation Yrotation
  JOINT LeftUpLeg
  {
    OFFSET 8.64259 1.95398 -2.38835
    CHANNELS 3 Zrotation Xrotation Yrotation
    JOINT LeftLeg
    {
      OFFSET 43.7702 0 0
      CHANNELS 3 Zrotation Xrotation Yrotation
      JOINT LeftFoot
      {
        OFFSET 40.6238 0 0
        CHANNELS 3 Zrotation Xrotation Yrotation
        JOINT LeftToeBase
        {
          OFFSET 12.7242 0 0
          CHANNELS 3 Zrotation Xrotation Yrotation
          End Site
          {
            OFFSET 0 0 0
          }
        }
      }
    }
  }
  JOINT RightUpLeg
  {
    OFFSET -8.2249 1.95398 -2.59336
    CHANNELS 3 Zrotation Xrotation Yrotation
    JOINT RightLeg
    {
      OFFSET 43.5653 0 0
      CHANNELS 3 Zrotation Xrotation Yrotation
      JOINT RightFoot
      {
        OFFSET 40.6238 0 0
        CHANNELS 3 Zrotation Xrotation Yrotation
        JOINT RightToeBase
        {
          OFFSET 12.7242 0 0
          CHANNELS 3 Zrotation Xrotation Yrotation
          End Site
          {
            OFFSET 0 0 0
          }
        }
      }
    }
  }
  JOINT Spine
  {
    OFFSET 0.165834 0.87714 6.61349
    CHANNELS 3 Zrotation Xrotation Yrotation
    JOINT Spine1
    {
      OFFSET 7.38963 1.71661e-005 0
      CHANNELS 3 Zrotation Xrotation Yrotation
      JOINT Spine2
      {
        OFFSET 11.9445 1.14441e-005 0
        CHANNELS 3 Zrotation Xrotation Yrotation
        JOINT Spine3
        {
          OFFSET 14.7254 4.19617e-005 0
          CHANNELS 3 Zrotation Xrotation Yrotation
          JOINT Spine4
          {
            OFFSET 10.9679 0 0
            CHANNELS 3 Zrotation Xrotation Yrotation
            JOINT RightShoulder
            {
              OFFSET 2.46616 -1.6653 3.69651
              CHANNELS 3 Zrotation Xrotation Yrotation
              JOINT RightArm
              {
                OFFSET 13.0012 0 0
                CHANNELS 3 Zrotation Xrotation Yrotation
                JOINT RightForeArm
                {
                  OFFSET 28.7848 1.62311e-005 0
                  CHANNELS 3 Zrotation Xrotation Yrotation
                  JOINT RightHand
                  {
                    OFFSET 26.5688 1.62095e-005 0
                    CHANNELS 3 Zrotation Xrotation Yrotation
                    End Site
                    {
                      OFFSET 0 0 0
                    }
                  }
                }
              }
            }
            JOINT LeftShoulder
            {
              OFFSET 2.38034 -1.29275 -3.7523
              CHANNELS 3 Zrotation Xrotation Yrotation
              JOINT LeftArm
              {
                OFFSET 16.3182 6.07031e-005 0
                CHANNELS 3 Zrotation Xrotation Yrotation
                JOINT LeftForeArm
                {
                  OFFSET 27.0901 0 0
                  CHANNELS 3 Zrotation Xrotation Yrotation
                  JOINT LeftHand
                  {
                    OFFSET 24.5451 1.51738e-005 0
                    CHANNELS 3 Zrotation Xrotation Yrotation
                    End Site
                    {
                      OFFSET 0 0 0
                    }
                  }
                }
              }
            }
            JOINT Neck
            {
              OFFSET 5.0226 -0.0266342 0
              CHANNELS 3 Zrotation Xrotation Yrotation
              JOINT Head
              {
                OFFSET 6.69364 2.86102e-005 0
                CHANNELS 3 Zrotation Xrotation Yrotation
                End Site
                {
                  OFFSET 0 0 0
                }
              }
            }
          }
        }
      }
    }
  }
}
MOTION
Frames:	9
Frame Time:	0.0416667
206.521 34.0603 -206.033 -124.816 -45.814 -115.613 -102.51 61.1995 28.0218 -155.677 5.63437 5.09402 52.3926 -4.1177 43.855 97.4235 12.8559 -26.971 149.308 79.3566 91.5534 -157.168 -17.8469 -1.4586 66.4545 -12.6253 -9.41331 51.5251 -29.5125 0.551656 0.499931 12.8529 -90.6702 1.17021 0.743816 -1.28063 -10.5012 0.686743 -1.31212 -33.0347 1.0943 -0.997909 -13.022 1.09429 -0.997918 96.957 -35.5041 -91.8667 0.674857 -43.7482 -57.805 -57.7266 9.55943 -72.1438 -13.2658 -2.25 14.7707 -85.1581 -37.086 84.0181 -24.0138 17.0322 -59.6888 11.8102 25.5332 -53.6313 7.17757 -0.272141 -6.55372 17.5217 0.33615 -6.74753 9.48834 3.73121 14.1033 
206.512 34.0496 -206.034 -124.999 -45.9122 -115.721 -103.316 60.8501 28.6091 -155.496 4.50826 5.08767 52.7294 -3.38533 44.5778 95.2841 13.8713 -24.8866 149.891 79.1393 90.8961 -157.251 -17.2684 -1.48334 67.029 -12.9237 -8.58615 51.6042 -29.801 0.153027 0.485736 12.8378 -90.6537 1.20021 0.721576 -1.24949 -10.4712 0.665902 -1.28004 -33.0047 1.06373 -0.974895 -12.9921 1.06372 -0.9749 96.9158 -35.9628 -91.8761 0.49363 -43.9528 -57.5666 -57.286 10.0769 -72.5443 -13.5063 -2.38594 15.5559 -85.0692 -36.6223 84.0933 -24.243 17.1795 -59.3606 12.9981 26.1868 -53.9047 8.18886 -0.368074 -7.25364 17.6034 0.190259 -8.98298 9.08466 4.42908 16.424 
206.645 34.2457 -206.102 -125.422 -46.0151 -115.839 -104.579 62.2711 30.1206 -156.2 5.85568 4.94361 58.8542 4.89814 29.4544 74.6641 20.7676 5.49026 150.775 78.8022 89.8231 -156.98 -17.0541 -1.54459 67.179 -12.8944 -7.60595 51.8311 -30.3214 -0.322788 0.474951 12.8496 -90.6918 1.17648 0.685736 -1.32468 -10.495 0.626776 -1.35358 -33.0278 1.05214 -1.05738 -13.0152 1.05213 -1.05739 96.751 -35.9838 -92.1812 0.71898 -44.2583 -57.1624 -57.8706 9.96917 -72.2073 -13.6598 -2.38027 15.2732 -85.1055 -36.6662 84.0364 -24.3985 17.2655 -59.1831 15.0671 27.6873 -54.213 9.97636 -0.59216 -9.01692 16.7496 0.233402 -7.81284 10.0409 4.05902 15.028 
206.673 34.3265 -206.151 -125.531 -46.0186 -115.684 -104.761 62.8963 30.384 -156.475 6.53729 4.88018 60.6863 6.82436 26.017 70.1549 21.2997 11.3345 148.911 78.4767 91.6289 -156.809 -17.1931 -1.56917 66.9868 -12.8511 -7.94262 51.5464 -29.95 -0.308755 0.474847 12.8683 -90.6906 1.13902 0.686196 -1.32186 -10.5325 0.627367 -1.35078 -33.0653 1.05174 -1.05456 -13.0527 1.05174 -1.05456 96.6198 -36.251 -92.3849 1.83456 -43.1507 -56.4179 -54.6575 10.7271 -73.6746 -14.2277 -2.265 13.5004 -84.916 -36.6147 84.3638 -24.3367 17.3076 -59.2763 14.8376 27.3633 -54.3258 9.31353 -0.496163 -8.33225 17.9498 0.189484 -7.96246 8.52338 3.91566 14.8071 
206.685 34.3838 -206.121 -124.86 -45.816 -115.473 -104.074 62.4636 29.9907 -156.352 6.32905 4.96216 60.8099 6.81477 26.0151 70.0878 21.277 11.3721 150.417 79.0983 90.5025 -156.679 -17.2222 -1.53019 66.5809 -12.6056 -8.171 52.2707 -30.551 0.351271 0.492246 12.8532 -90.6454 1.16942 0.737887 -1.23247 -10.5019 0.682918 -1.26375 -33.0357 1.07416 -0.953751 -13.023 1.07416 -0.953761 96.7601 -36.1801 -92.1346 1.09769 -43.6344 -57.1389 -55.7465 10.791 -72.981 -13.5261 -2.15845 13.5882 -84.9304 -36.3335 84.2888 -24.6109 17.214 -59.3794 15.0451 27.3659 -54.2514 8.78153 -0.563415 -9.21271 17.5419 0.0111348 -9.61844 9.05172 4.47887 16.8748 
206.728 34.4357 -206.126 -125.243 -45.8796 -115.589 -104.898 62.5902 30.7506 -156.345 6.09677 4.93698 61.1647 7.21566 25.6449 69.6424 21.0713 11.4782 152.675 78.9392 88.0869 -156.791 -16.1657 -1.61277 67.9907 -12.9794 -5.15975 50.8613 -29.2091 -0.598269 0.451598 12.8704 -90.6506 1.13484 0.654965 -1.2449 -10.5366 0.599549 -1.27253 -33.0697 0.998814 -0.990541 -13.0571 0.998812 -0.99055 96.6555 -35.9596 -92.3624 1.67213 -43.404 -56.8616 -54.9976 10.8062 -73.5658 -13.9418 -2.22633 13.5764 -84.8009 -36.4031 84.5319 -24.1991 17.2719 -59.1066 14.8648 27.0876 -54.5053 9.89984 -0.51969 -8.36227 17.5357 0.065092 -9.23753 8.75631 4.31731 16.3022 
206.748 34.503 -206.055 -125.025 -45.8059 -115.899 -104.923 62.2449 30.7362 -156.291 5.82963 4.96092 61.4368 7.29892 24.8503 69.5493 20.9052 11.1806 160.813 79.4934 79.9867 -156.903 -16.3497 -1.55845 68.6026 -12.6666 -2.9639 49.9371 -28.2091 -1.02746 0.421058 12.8394 -90.5661 1.19645 0.625755 -1.08207 -10.4748 0.577522 -1.10856 -33.0088 0.922011 -0.844006 -12.9961 0.922009 -0.844004 96.6033 -36.2767 -92.4113 1.68609 -43.433 -56.6752 -54.1936 10.9607 -73.7555 -14.7284 -2.34357 13.4779 -84.8074 -36.1807 84.4816 -24.3732 17.2378 -58.8328 15.1204 27.037 -54.7258 9.29865 -0.490512 -8.28374 16.7063 0.128984 -9.30683 9.14142 4.37782 16.2095 
206.658 34.4707 -206.019 -125.104 -45.7133 -115.402 -105.628 63.8949 31.3782 -156.559 6.05263 4.81021 61.3449 6.5424 23.3626 69.7909 20.6922 10.2793 159.798 79.3311 81.1103 -156.946 -15.5439 -1.6525 69.0165 -12.262 -1.23709 49.8653 -27.7929 -0.311483 0.470482 12.8447 -90.6562 1.18628 0.690479 -1.25538 -10.4851 0.634556 -1.28456 -33.0184 1.03584 -0.989868 -13.0058 1.03582 -0.989865 96.6046 -35.8447 -92.4757 2.30118 -43.4958 -56.1374 -54.4492 10.4458 -73.8183 -16.6137 -2.75171 14.1226 -84.9174 -36.4877 84.3392 -24.2688 17.2722 -59.0561 14.7691 27.1186 -54.5289 9.38852 -0.466275 -8.01698 16.4547 0.225466 -8.77085 9.36383 4.31724 16.0613 
206.604 34.6465 -205.823 -124.03 -45.476 -114.961 -105.683 63.905 31.6018 -156.467 5.85569 4.8429 61.8628 6.63127 22.008 69.8293 20.6628 10.1473 166.955 79.5571 74.3233 -156.987 -15.5453 -1.60205 69.9706 -12.5775 0.657107 49.4837 -27.4964 -0.753618 0.498653 12.7651 -90.6332 1.34578 0.754438 -1.21018 -10.3255 0.700468 -1.24221 -32.8595 1.08326 -0.927516 -12.8469 1.08326 -0.927517 96.6284 -35.5015 -92.4843 2.94461 -43.6598 -55.7226 -54.4794 10.6342 -73.7024 -15.9047 -2.57833 13.7548 -85.2506 -37.1523 83.8668 -23.9963 17.0857 -59.0549 13.9255 26.5576 -54.3563 8.67311 -0.522378 -8.8277 15.4566 0.377831 -7.02685 10.0608 3.83419 14.4503 
